<svg width="32" height="33" viewBox="0 0 32 33" fill="none" xmlns="http://www.w3.org/2000/svg">
<path fill-rule="evenodd" clip-rule="evenodd" d="M9.40364 0.596C11.1098 0.517455 11.6538 0.5 16 0.5C20.3462 0.5 20.8902 0.518909 22.5949 0.596C24.2996 0.673091 25.4633 0.945091 26.4815 1.33927C27.5476 1.74218 28.5149 2.372 29.3149 3.18655C30.1295 3.98509 30.7578 4.95091 31.1593 6.01855C31.5549 7.03673 31.8255 8.20036 31.904 9.90218C31.9825 11.6113 32 12.1553 32 16.5C32 20.8462 31.9811 21.3902 31.904 23.0964C31.8269 24.7982 31.5549 25.9618 31.1593 26.98C30.7578 28.0478 30.1284 29.0152 29.3149 29.8149C28.5149 30.6295 27.5476 31.2578 26.4815 31.6593C25.4633 32.0549 24.2996 32.3255 22.5978 32.404C20.8902 32.4825 20.3462 32.5 16 32.5C11.6538 32.5 11.1098 32.4811 9.40364 32.404C7.70182 32.3269 6.53818 32.0549 5.52 31.6593C4.45225 31.2578 3.48483 30.6284 2.68509 29.8149C1.8711 29.0159 1.24119 28.0489 0.839273 26.9815C0.445091 25.9633 0.174545 24.7996 0.096 23.0978C0.0174545 21.3887 0 20.8447 0 16.5C0 12.1538 0.0189091 11.6098 0.096 9.90509C0.173091 8.20036 0.445091 7.03673 0.839273 6.01855C1.24178 4.95103 1.87217 3.98409 2.68655 3.18509C3.48515 2.37127 4.4516 1.74137 5.51855 1.33927C6.53673 0.945091 7.70036 0.674545 9.40218 0.596H9.40364ZM22.4655 3.476C20.7782 3.39891 20.272 3.38291 16 3.38291C11.728 3.38291 11.2218 3.39891 9.53455 3.476C7.97382 3.54727 7.12727 3.80764 6.56291 4.02727C5.81673 4.31818 5.28291 4.66291 4.72291 5.22291C4.19207 5.73935 3.78354 6.36805 3.52727 7.06291C3.30764 7.62727 3.04727 8.47382 2.976 10.0345C2.89891 11.7218 2.88291 12.228 2.88291 16.5C2.88291 20.772 2.89891 21.2782 2.976 22.9655C3.04727 24.5262 3.30764 25.3727 3.52727 25.9371C3.78327 26.6309 4.192 27.2607 4.72291 27.7771C5.23927 28.308 5.86909 28.7167 6.56291 28.9727C7.12727 29.1924 7.97382 29.4527 9.53455 29.524C11.2218 29.6011 11.7265 29.6171 16 29.6171C20.2735 29.6171 20.7782 29.6011 22.4655 29.524C24.0262 29.4527 24.8727 29.1924 25.4371 28.9727C26.1833 28.6818 26.7171 28.3371 27.2771 27.7771C27.808 27.2607 28.2167 26.6309 28.4727 25.9371C28.6924 25.3727 28.9527 24.5262 29.024 22.9655C29.1011 21.2782 29.1171 20.772 29.1171 16.5C29.1171 12.228 29.1011 11.7218 29.024 10.0345C28.9527 8.47382 28.6924 7.62727 28.4727 7.06291C28.1818 6.31673 27.8371 5.78291 27.2771 5.22291C26.7606 4.6921 26.1319 4.28358 25.4371 4.02727C24.8727 3.80764 24.0262 3.54727 22.4655 3.476ZM13.9564 21.4324C15.0977 21.9075 16.3686 21.9716 17.5519 21.6138C18.7352 21.256 19.7577 20.4984 20.4445 19.4705C21.1314 18.4426 21.4401 17.2082 21.3179 15.978C21.1957 14.7478 20.6502 13.5981 19.7745 12.7255C19.2163 12.1676 18.5414 11.7405 17.7983 11.4748C17.0552 11.2091 16.2624 11.1114 15.4771 11.1889C14.6917 11.2664 13.9333 11.517 13.2564 11.9227C12.5796 12.3285 12.0011 12.8793 11.5626 13.5354C11.1242 14.1916 10.8366 14.9368 10.7208 15.7174C10.6049 16.498 10.6635 17.2946 10.8924 18.0498C11.1214 18.8051 11.5149 19.5002 12.0447 20.0851C12.5745 20.6699 13.2274 21.1301 13.9564 21.4324ZM10.1847 10.6847C10.9484 9.92105 11.855 9.31528 12.8528 8.90198C13.8506 8.48868 14.92 8.27596 16 8.27596C17.08 8.27596 18.1494 8.48868 19.1472 8.90198C20.145 9.31528 21.0516 9.92105 21.8153 10.6847C22.5789 11.4484 23.1847 12.355 23.598 13.3528C24.0113 14.3506 24.224 15.42 24.224 16.5C24.224 17.58 24.0113 18.6494 23.598 19.6472C23.1847 20.645 22.5789 21.5516 21.8153 22.3153C20.273 23.8576 18.1812 24.724 16 24.724C13.8188 24.724 11.727 23.8576 10.1847 22.3153C8.64242 20.773 7.77596 18.6812 7.77596 16.5C7.77596 14.3188 8.64242 12.227 10.1847 10.6847ZM26.048 9.50073C26.2372 9.32221 26.3887 9.10754 26.4935 8.86942C26.5983 8.6313 26.6543 8.37457 26.6581 8.11444C26.6619 7.85431 26.6134 7.59607 26.5156 7.355C26.4178 7.11392 26.2726 6.89492 26.0887 6.71097C25.9047 6.52701 25.6857 6.38183 25.4446 6.28403C25.2036 6.18622 24.9453 6.13778 24.6852 6.14158C24.4251 6.14537 24.1683 6.20131 23.9302 6.3061C23.6921 6.41089 23.4774 6.56239 23.2989 6.75164C22.9517 7.11968 22.7616 7.60854 22.769 8.11444C22.7764 8.62035 22.9806 9.10346 23.3384 9.46123C23.6962 9.81899 24.1793 10.0232 24.6852 10.0306C25.1911 10.038 25.68 9.84791 26.048 9.50073Z" fill="white"/>
</svg>
